<svg xmlns="http://www.w3.org/2000/svg" viewBox="0 0 512 512" width="512" height="512">
  <defs>
    <linearGradient id="gc" x1="0%" y1="0%" x2="100%" y2="100%">
      <stop offset="0%" stop-color="#C8960E"/><stop offset="100%" stop-color="#7A5500"/>
    </linearGradient>
  </defs>
  <rect width="512" height="512" rx="114" fill="#F5F0E8"/>
  <rect width="512" height="512" rx="114" fill="none" stroke="url(#gc)" stroke-width="3" opacity="0.3"/>
  <g transform="translate(0.0,0.0) scale(3.2)">
  <path d="M 64 70 A 9 9 0 0 0 64 90"   stroke="url(#gc)" stroke-width="4.5" fill="none" stroke-linecap="round"/>
  <path d="M 57 63 A 16 16 0 0 0 57 97" stroke="url(#gc)" stroke-width="3.2" fill="none" stroke-linecap="round" opacity="0.55"/>
  <path d="M 50 56 A 23 23 0 0 0 50 104" stroke="url(#gc)" stroke-width="2"  fill="none" stroke-linecap="round" opacity="0.25"/>
  <polygon points="71,67 71,93 91,80" fill="url(#gc)"/>
  <path d="M 90 70 A 9 9 0 0 1 90 90"   stroke="url(#gc)" stroke-width="4.5" fill="none" stroke-linecap="round"/>
  <path d="M 97 63 A 16 16 0 0 1 97 97" stroke="url(#gc)" stroke-width="3.2" fill="none" stroke-linecap="round" opacity="0.55"/>
  <path d="M 104 56 A 23 23 0 0 1 104 104" stroke="url(#gc)" stroke-width="2"  fill="none" stroke-linecap="round" opacity="0.25"/></g>
</svg>