<svg xmlns="http://www.w3.org/2000/svg" viewBox="0 0 512 512" width="512" height="512">
  <defs>
    <linearGradient id="gbg" x1="0%" y1="0%" x2="100%" y2="100%">
      <stop offset="0%" stop-color="#1E1E1E"/><stop offset="100%" stop-color="#070707"/>
    </linearGradient>
    <linearGradient id="gi" x1="0%" y1="0%" x2="100%" y2="100%">
      <stop offset="0%" stop-color="#FFE566"/><stop offset="50%" stop-color="#D4A017"/><stop offset="100%" stop-color="#A97010"/>
    </linearGradient>
    <filter id="glow" x="-20%" y="-20%" width="140%" height="140%">
      <feGaussianBlur stdDeviation="5" result="b"/>
      <feMerge><feMergeNode in="b"/><feMergeNode in="SourceGraphic"/></feMerge>
    </filter>
  </defs>
  <rect width="512" height="512" rx="114" fill="url(#gbg)"/>
  <rect width="512" height="512" rx="114" fill="none" stroke="url(#gi)" stroke-width="3" opacity="0.18"/>
  <g filter="url(#glow)" transform="translate(0.0,0.0) scale(3.2)">
  <path d="M 64 70 A 9 9 0 0 0 64 90"   stroke="url(#gi)" stroke-width="4.5" fill="none" stroke-linecap="round"/>
  <path d="M 57 63 A 16 16 0 0 0 57 97" stroke="url(#gi)" stroke-width="3.2" fill="none" stroke-linecap="round" opacity="0.55"/>
  <path d="M 50 56 A 23 23 0 0 0 50 104" stroke="url(#gi)" stroke-width="2"  fill="none" stroke-linecap="round" opacity="0.25"/>
  <polygon points="71,67 71,93 91,80" fill="url(#gi)"/>
  <path d="M 90 70 A 9 9 0 0 1 90 90"   stroke="url(#gi)" stroke-width="4.5" fill="none" stroke-linecap="round"/>
  <path d="M 97 63 A 16 16 0 0 1 97 97" stroke="url(#gi)" stroke-width="3.2" fill="none" stroke-linecap="round" opacity="0.55"/>
  <path d="M 104 56 A 23 23 0 0 1 104 104" stroke="url(#gi)" stroke-width="2"  fill="none" stroke-linecap="round" opacity="0.25"/></g>
</svg>